<svg width="30" height="30" viewBox="0 0 30 30" fill="none" xmlns="http://www.w3.org/2000/svg">
<g clip-path="url(#clip0_51_20)">
<path d="M22.9688 0H7.03125C3.148 0 0 3.0522 0 6.81729V22.2698C0 26.0349 3.148 29.0871 7.03125 29.0871H22.9688C26.852 29.0871 30 26.0349 30 22.2698V6.81729C30 3.0522 26.852 0 22.9688 0Z" fill="#5865F2"/>
<mask id="mask0_51_20" style="mask-type:luminance" maskUnits="userSpaceOnUse" x="3" y="5" width="24" height="19">
<path d="M3.28125 5.79468H26.7188V23.3981H3.28125V5.79468Z" fill="white"/>
</mask>
<g mask="url(#mask0_51_20)">
<path d="M23.1221 7.36263C21.6026 6.68633 19.999 6.20407 18.3515 5.92793C18.3365 5.92524 18.3211 5.9272 18.3073 5.93353C18.2935 5.93985 18.2822 5.95022 18.2749 5.96315C18.0688 6.31833 17.8406 6.78191 17.6808 7.14618C15.8793 6.88462 14.0872 6.88462 12.3227 7.14618C12.1628 6.77373 11.9263 6.31833 11.7194 5.96315C11.7117 5.95048 11.7003 5.94034 11.6866 5.93406C11.6729 5.92778 11.6576 5.92564 11.6426 5.92793C9.99498 6.20352 8.39133 6.6858 6.87204 7.36263C6.85904 7.36798 6.84807 7.37711 6.84064 7.38876C3.8022 11.79 2.96993 16.0831 3.37821 20.323C3.37935 20.3334 3.38263 20.3434 3.38787 20.3526C3.3931 20.3617 3.40018 20.3697 3.40868 20.3762C5.41329 21.8036 7.35521 22.6702 9.26103 23.2445C9.27585 23.2488 9.29168 23.2486 9.30638 23.2439C9.32108 23.2393 9.33396 23.2304 9.34329 23.2184C9.79411 22.6214 10.1959 21.9921 10.5406 21.3302C10.5453 21.3212 10.5481 21.3112 10.5485 21.3011C10.549 21.2909 10.5473 21.2808 10.5435 21.2713C10.5396 21.2619 10.5338 21.2533 10.5263 21.2462C10.5188 21.2391 10.5098 21.2336 10.4999 21.2301C9.86243 20.9956 9.25552 20.7099 8.67169 20.3852C8.66106 20.3792 8.65213 20.3707 8.64569 20.3604C8.63925 20.3502 8.6355 20.3386 8.63477 20.3267C8.63404 20.3148 8.63636 20.3028 8.64151 20.292C8.64666 20.2811 8.65449 20.2716 8.66431 20.2644C8.78747 20.1751 8.90852 20.0831 9.02735 19.9885C9.03776 19.9801 9.05036 19.9748 9.06374 19.973C9.07711 19.9712 9.09073 19.9731 9.10306 19.9785C12.9388 21.6764 17.0914 21.6764 20.8818 19.9785C20.8942 19.9728 20.908 19.9706 20.9215 19.9722C20.9351 19.9738 20.948 19.9792 20.9586 19.9876C21.0775 20.0827 21.1989 20.175 21.3225 20.2644C21.3324 20.2715 21.3403 20.2809 21.3455 20.2918C21.3508 20.3026 21.3532 20.3145 21.3525 20.3265C21.3519 20.3384 21.3482 20.35 21.3419 20.3603C21.3355 20.3705 21.3267 20.3791 21.3161 20.3852C20.7319 20.7159 20.12 20.9983 19.4869 21.2292C19.4771 21.2329 19.4682 21.2385 19.4607 21.2457C19.4533 21.2529 19.4475 21.2616 19.4438 21.2711C19.44 21.2806 19.4384 21.2908 19.439 21.301C19.4396 21.3112 19.4424 21.3212 19.4472 21.3302C19.7978 21.9868 20.1976 22.6176 20.6434 23.2175C20.6525 23.2298 20.6653 23.239 20.6801 23.2438C20.6949 23.2487 20.7108 23.2489 20.7257 23.2445C22.6408 22.6702 24.5827 21.8036 26.5874 20.3762C26.596 20.37 26.6032 20.3622 26.6084 20.3532C26.6137 20.3442 26.6169 20.3342 26.6179 20.3239C27.1066 15.4221 25.7993 11.1642 23.1525 7.38967C23.1461 7.37741 23.1353 7.36781 23.1221 7.36263ZM11.1134 17.7414C9.95853 17.7414 9.00696 16.7135 9.00696 15.451C9.00696 14.1886 9.94013 13.1606 11.1134 13.1606C12.2958 13.1606 13.2381 14.1976 13.2196 15.451C13.2196 16.7135 12.2867 17.7414 11.1134 17.7414ZM18.9012 17.7414C17.7463 17.7414 16.7949 16.7135 16.7949 15.451C16.7949 14.1886 17.7279 13.1606 18.9012 13.1606C20.0836 13.1606 21.0259 14.1976 21.0076 15.451C21.0076 16.7135 20.0836 17.7414 18.9012 17.7414Z" fill="white"/>
</g>
</g>
<defs>
<clipPath id="clip0_51_20">
<rect width="30" height="29.0871" fill="white"/>
</clipPath>
</defs>
</svg>
