<svg width="30" height="34" viewBox="0 0 30 34" fill="none" xmlns="http://www.w3.org/2000/svg">
<path d="M4.28571 2.125C1.92188 2.125 0 4.03086 0 6.375V27.625C0 29.9691 1.92188 31.875 4.28571 31.875H25.7143C28.0781 31.875 30 29.9691 30 27.625V6.375C30 4.03086 28.0781 2.125 25.7143 2.125H4.28571ZM19.7009 16.223C21.0067 16.8406 21.9576 17.7836 22.4598 18.9391C23.1562 20.5527 23.2232 23.1824 21.1071 25.2742C19.4866 26.8746 17.5246 27.5984 14.7388 27.6184H14.7254C11.5915 27.5984 9.1808 26.5492 7.56696 24.5105C6.12723 22.6977 5.38393 20.1676 5.35714 17V16.9867C5.38393 13.8191 6.12723 11.2957 7.56696 9.47617C9.1875 7.4375 11.5982 6.38828 14.7254 6.36836H14.7388C17.8795 6.38828 20.317 7.43086 21.9844 9.46289C22.808 10.4656 23.4107 11.6742 23.7924 13.0754L21.9911 13.5535C21.6763 12.4113 21.1942 11.4352 20.558 10.6582C19.2589 9.07109 17.2969 8.26094 14.7321 8.24102C12.1875 8.26094 10.2589 9.07109 9.0067 10.6449C7.83482 12.1258 7.22545 14.2574 7.20536 16.9867C7.22545 19.716 7.83482 21.8543 9.0067 23.3285C10.2589 24.909 12.1808 25.7191 14.7321 25.7324C17.029 25.7125 18.5424 25.1746 19.808 23.9195C21.2478 22.4918 21.221 20.7387 20.7589 19.6695C20.4911 19.0453 19.9955 18.5207 19.3326 18.1223C19.1719 19.3176 18.8036 20.2605 18.2277 20.991C17.4643 21.9539 16.3728 22.4785 14.9866 22.5516C13.9353 22.6113 12.9241 22.359 12.1339 21.841C11.2031 21.2301 10.6607 20.3004 10.6004 19.218C10.4866 17.0797 12.1942 15.5457 14.8527 15.393C15.7969 15.3398 16.6808 15.3797 17.4978 15.5191C17.3906 14.8617 17.1696 14.3438 16.8415 13.9652C16.3929 13.4473 15.6964 13.1816 14.779 13.175H14.7522C14.0156 13.175 13.0112 13.3809 12.3683 14.3438L10.8281 13.2945C11.6853 12.0062 13.0781 11.2957 14.7455 11.2957H14.7857C17.5848 11.3156 19.2455 13.0422 19.4129 16.0637C19.5067 16.1035 19.6004 16.1434 19.6942 16.1898L19.7009 16.223ZM14.8929 20.7055C16.0312 20.6457 17.3304 20.2008 17.5513 17.4648C16.9621 17.3387 16.3058 17.2723 15.6094 17.2723C15.3951 17.2723 15.1808 17.2789 14.9665 17.2922C13.0513 17.3984 12.4152 18.3215 12.4621 19.1449C12.5223 20.2539 13.7344 20.7719 14.8996 20.7121L14.8929 20.7055Z" fill="black"/>
</svg>
