<svg width="40" height="40" viewBox="0 0 40 40" fill="none" xmlns="http://www.w3.org/2000/svg">
<path d="M27.65 15H25V6.66667C25 5.75 24.25 5 23.3333 5H16.6667C15.75 5 15 5.75 15 6.66667V15H12.35C10.8667 15 10.1167 16.8 11.1667 17.85L18.8167 25.5C19.4667 26.15 20.5167 26.15 21.1667 25.5L28.8167 17.85C29.8667 16.8 29.1333 15 27.65 15ZM8.33333 31.6667C8.33333 32.5833 9.08333 33.3333 10 33.3333H30C30.9167 33.3333 31.6667 32.5833 31.6667 31.6667C31.6667 30.75 30.9167 30 30 30H10C9.08333 30 8.33333 30.75 8.33333 31.6667Z" fill="white"/>
</svg>
