<svg width="36" height="36" viewBox="0 0 36 36" fill="none" xmlns="http://www.w3.org/2000/svg">
<g clip-path="url(#clip0_31_16)">
<path d="M21.102 16.9695C20.4898 16.9695 19.8836 17.0902 19.3181 17.3248C18.7527 17.5593 18.239 17.9031 17.8065 18.3364C17.3741 18.7697 17.0313 19.284 16.7978 19.85C16.5644 20.4159 16.4448 21.0223 16.446 21.6345C16.446 24.264 18.471 26.262 21.3285 26.262L21.3045 26.265C23.6895 26.265 25.692 24.3 25.692 21.705C25.692 19.005 23.688 16.9695 21.099 16.9695H21.102ZM0 0V36H36V0H0ZM31.0395 31.2105H25.6755V29.0955C24.0255 30.7155 22.341 31.3005 20.103 31.3005C17.82 31.3005 15.855 30.558 14.208 29.073C12.036 27.1605 10.911 24.618 10.911 21.669C10.911 18.969 11.961 16.548 13.926 14.658C15.681 12.939 17.8185 12.063 20.2035 12.063C22.4835 12.063 24.2385 12.8325 25.4985 14.448V6.2355L31.038 5.088V5.085L31.041 5.0895L31.038 5.088V31.2105H31.0395Z" fill="#0064DC"/>
</g>
<defs>
<clipPath id="clip0_31_16">
<rect width="36" height="36" fill="white"/>
</clipPath>
</defs>
</svg>
