<svg width="38" height="37" viewBox="0 0 38 37" fill="none" xmlns="http://www.w3.org/2000/svg">
<g clip-path="url(#clip0_19_10)">
<path d="M29.0938 0H8.90625C3.98746 0 0 3.86613 0 8.63523V28.2084C0 32.9775 3.98746 36.8437 8.90625 36.8437H29.0938C34.0125 36.8437 38 32.9775 38 28.2084V8.63523C38 3.86613 34.0125 0 29.0938 0Z" fill="#5865F2"/>
<mask id="mask0_19_10" style="mask-type:luminance" maskUnits="userSpaceOnUse" x="4" y="7" width="30" height="23">
<path d="M4.15625 7.33997H33.8438V29.6376H4.15625V7.33997Z" fill="white"/>
</mask>
<g mask="url(#mask0_19_10)">
<path d="M29.2879 9.32585C27.3632 8.46921 25.332 7.85835 23.2452 7.50856C23.2262 7.50516 23.2066 7.50764 23.1892 7.51565C23.1718 7.52366 23.1574 7.53679 23.1481 7.55318C22.8872 8.00308 22.598 8.59027 22.3957 9.05168C20.1138 8.72038 17.8437 8.72038 15.6087 9.05168C15.4062 8.57991 15.1067 8.00308 14.8445 7.55318C14.8348 7.53713 14.8204 7.52429 14.803 7.51633C14.7857 7.50837 14.7663 7.50566 14.7473 7.50856C12.6603 7.85764 10.629 8.46853 8.70456 9.32585C8.68808 9.33263 8.67419 9.34419 8.66477 9.35895C4.81609 14.9339 3.76188 20.3718 4.27904 25.7423C4.28048 25.7555 4.28464 25.7682 4.29127 25.7798C4.2979 25.7913 4.30687 25.8015 4.31763 25.8096C6.85681 27.6177 9.31656 28.7154 11.7306 29.4429C11.7494 29.4484 11.7694 29.4481 11.788 29.4422C11.8067 29.4363 11.823 29.425 11.8348 29.4098C12.4058 28.6537 12.9148 27.8565 13.3514 27.0181C13.3574 27.0067 13.3608 26.9941 13.3615 26.9812C13.3621 26.9684 13.3599 26.9555 13.355 26.9435C13.3502 26.9315 13.3427 26.9207 13.3332 26.9117C13.3237 26.9027 13.3124 26.8958 13.2999 26.8914C12.4924 26.5943 11.7236 26.2323 10.9841 25.8212C10.9706 25.8135 10.9593 25.8027 10.9512 25.7897C10.943 25.7768 10.9383 25.7621 10.9373 25.747C10.9364 25.7319 10.9394 25.7168 10.9459 25.703C10.9524 25.6892 10.9623 25.6772 10.9748 25.668C11.1308 25.555 11.2841 25.4384 11.4346 25.3186C11.4478 25.308 11.4638 25.3012 11.4807 25.299C11.4976 25.2968 11.5149 25.2992 11.5305 25.3059C16.3892 27.4567 21.649 27.4567 26.4503 25.3059C26.4659 25.2987 26.4834 25.296 26.5006 25.298C26.5178 25.3001 26.5341 25.3068 26.5475 25.3174C26.6982 25.438 26.8519 25.5549 27.0085 25.668C27.021 25.6771 27.031 25.6891 27.0376 25.7028C27.0443 25.7165 27.0473 25.7316 27.0465 25.7467C27.0457 25.7618 27.0411 25.7765 27.033 25.7895C27.025 25.8025 27.0138 25.8134 27.0004 25.8212C26.2604 26.2401 25.4854 26.5977 24.6834 26.8902C24.671 26.8948 24.6596 26.9019 24.6502 26.9111C24.6408 26.9202 24.6335 26.9312 24.6287 26.9433C24.624 26.9553 24.6219 26.9683 24.6227 26.9812C24.6234 26.9941 24.627 27.0067 24.6331 27.0181C25.0772 27.8498 25.5836 28.6488 26.1483 29.4087C26.1598 29.4242 26.1761 29.4359 26.1948 29.442C26.2134 29.4482 26.2337 29.4485 26.2525 29.4429C28.6783 28.7154 31.1381 27.6177 33.6774 25.8096C33.6883 25.8019 33.6973 25.792 33.704 25.7805C33.7106 25.7691 33.7147 25.7565 33.716 25.7434C34.335 19.5346 32.6791 14.1411 29.3265 9.3601C29.3183 9.34457 29.3046 9.33241 29.2879 9.32585ZM14.077 22.4723C12.6141 22.4723 11.4088 21.1702 11.4088 19.5711C11.4088 17.972 12.5908 16.67 14.077 16.67C15.5747 16.67 16.7683 17.9835 16.7448 19.5711C16.7448 21.1702 15.5631 22.4723 14.077 22.4723ZM23.9415 22.4723C22.4787 22.4723 21.2735 21.1702 21.2735 19.5711C21.2735 17.972 22.4554 16.67 23.9415 16.67C25.4392 16.67 26.6328 17.9835 26.6095 19.5711C26.6095 21.1702 25.4392 22.4723 23.9415 22.4723Z" fill="white"/>
</g>
</g>
<defs>
<clipPath id="clip0_19_10">
<rect width="38" height="36.8437" fill="white"/>
</clipPath>
</defs>
</svg>
