<svg width="41" height="41" viewBox="0 0 41 41" fill="none" xmlns="http://www.w3.org/2000/svg">
<path d="M37.3645 1.54712H3.63875C2.48357 1.54712 1.54711 2.48358 1.54711 3.63876V37.3645C1.54711 38.5196 2.48357 39.4561 3.63875 39.4561H37.3645C38.5196 39.4561 39.4561 38.5196 39.4561 37.3645V3.63876C39.4561 2.48358 38.5196 1.54712 37.3645 1.54712Z" fill="#3D5A98"/>
<path d="M27.7006 39.4529V24.773H32.627L33.3637 19.0522H27.7006V15.4006C27.7006 13.7446 28.1619 12.6139 30.5354 12.6139H33.5655V7.48892C32.0982 7.336 30.6237 7.26329 29.1484 7.27111C24.7858 7.27111 21.7812 9.9297 21.7812 14.8337V19.0522H16.8548V24.773H21.7812V39.4529H27.7006Z" fill="white"/>
</svg>
