<svg width="37" height="42" viewBox="0 0 37 42" fill="none" xmlns="http://www.w3.org/2000/svg">
<g clip-path="url(#clip0_31_20)">
<path d="M14.8028 14.1834C14.8027 12.4137 16.241 10.9802 18.0008 10.98C19.7606 10.9799 21.1991 12.4132 21.1992 14.1829C21.1994 15.9446 19.7611 17.3701 18.0013 17.3703C16.2414 17.3704 14.8029 15.9371 14.8028 14.1834ZM36.0005 6.40626L36.0025 34.5938C36.0027 36.7158 34.2751 38.4376 32.1456 38.4378L3.85993 38.4398C1.73047 38.44 0.00266542 36.7184 0.00251118 34.5964L0.000462475 6.40887C0.00030824 4.2868 1.72786 2.565 3.85733 2.56484L32.143 2.56279C34.2725 2.56263 36.0003 4.28419 36.0005 6.40626ZM11.4841 14.1836C11.4843 17.7551 14.4095 20.6617 18.0015 20.6615C21.5935 20.6612 24.5183 17.7622 24.518 14.1827C24.5177 10.5952 21.5925 7.68856 18.0006 7.68882C14.4086 7.68908 11.4838 10.5881 11.4841 14.1836ZM25.5069 21.4457C25.1372 20.717 24.1166 20.1005 22.7667 21.1576C22.7667 21.1576 20.9427 22.5992 18.0016 22.5994C15.0606 22.5996 13.2364 21.1583 13.2364 21.1583C11.8863 20.1014 10.8658 20.718 10.4962 21.4468C9.86147 22.7361 10.5847 23.3446 12.2161 24.4096C13.6063 25.2983 15.5269 25.6265 16.7644 25.7545L15.7278 26.7876C14.2654 28.2291 12.8754 29.6306 11.8951 30.6076C10.4809 32.0171 12.7552 34.2751 14.1774 32.8977L18.0101 29.0617C19.4728 30.519 20.8791 31.9202 21.8435 32.8971C23.2578 34.2744 25.5398 32.04 24.1415 30.6067L20.3082 26.7873L19.2635 25.7544C20.509 25.6261 22.4054 25.2817 23.7794 24.4087C25.4187 23.3436 26.1338 22.7269 25.5069 21.4457Z" fill="#F97400"/>
</g>
<defs>
<clipPath id="clip0_31_20">
<rect width="36" height="41" fill="white" transform="translate(0 0.00262451)"/>
</clipPath>
</defs>
</svg>
