<svg width="36" height="42" viewBox="0 0 36 42" fill="none" xmlns="http://www.w3.org/2000/svg">
<path d="M36 6.5625V35.4375C36 37.6113 34.2723 39.375 32.1429 39.375H12.4071C13.1946 38.0297 14.2071 36.0938 14.6089 34.5105C14.85 33.5672 15.8384 29.7199 15.8384 29.7199C16.4813 30.975 18.3616 32.0332 20.3625 32.0332C26.317 32.0332 30.6 26.4469 30.6 19.507C30.6 12.8543 25.2804 7.875 18.4339 7.875C9.91607 7.875 5.4 13.7074 5.4 20.0648C5.4 23.018 6.94286 26.693 9.40179 27.866C9.77946 28.0465 9.97232 27.9645 10.0607 27.5953C10.125 27.3164 10.4625 25.9465 10.6071 25.3148C10.6554 25.1098 10.6313 24.9375 10.4705 24.7406C9.65893 23.7316 9 21.8777 9 20.1469C9 15.7008 12.2946 11.4023 17.9116 11.4023C22.7571 11.4023 26.1562 14.7738 26.1562 19.5973C26.1562 25.0441 23.4643 28.8176 19.9527 28.8176C18.0161 28.8176 16.5696 27.1852 17.0277 25.1754C17.5821 22.7801 18.6589 20.1961 18.6589 18.4652C18.6589 14.1176 12.592 14.7164 12.592 20.516C12.592 22.2961 13.1786 23.5102 13.1786 23.5102C10.6554 34.4039 10.2777 34.5434 10.8 39.3094L10.9768 39.375H3.85714C1.72768 39.375 0 37.6113 0 35.4375V6.5625C0 4.38867 1.72768 2.625 3.85714 2.625H32.1429C34.2723 2.625 36 4.38867 36 6.5625Z" fill="#C8232C"/>
</svg>
