<svg width="37" height="37" viewBox="0 0 37 37" fill="none" xmlns="http://www.w3.org/2000/svg">
<g clip-path="url(#clip0_17_30)">
<path d="M22.6191 24.1126C22.8279 24.3214 22.8279 24.5302 22.6191 24.7389C21.768 25.5901 20.395 26.0156 18.5 26.0156C16.605 26.0156 15.232 25.5901 14.3809 24.7389C14.1721 24.5302 14.1721 24.3214 14.3809 24.1126C14.4612 24.0163 14.5655 23.9681 14.694 23.9681C14.8225 23.9681 14.9269 24.0163 15.0072 24.1126C15.6816 24.7871 16.8459 25.1243 18.5 25.1243C20.1541 25.1243 21.3184 24.7871 21.9928 24.1126C22.0731 24.0163 22.1775 23.9681 22.306 23.9681C22.4345 23.9681 22.5388 24.0163 22.6191 24.1126ZM16.2839 20.3548C16.2839 20.8526 16.0992 21.2862 15.7298 21.6556C15.3605 22.025 14.9269 22.2096 14.429 22.2096C13.9312 22.2096 13.4976 22.025 13.1283 21.6556C12.7589 21.2862 12.5742 20.8526 12.5742 20.3548C12.5742 19.8409 12.7549 19.4033 13.1162 19.042C13.4775 18.6807 13.9151 18.5 14.429 18.5C14.9429 18.5 15.3805 18.6807 15.7419 19.042C16.1032 19.4033 16.2839 19.8409 16.2839 20.3548ZM24.4258 20.3548C24.4258 20.8526 24.2411 21.2862 23.8717 21.6556C23.5024 22.025 23.0688 22.2096 22.571 22.2096C22.0731 22.2096 21.6395 22.025 21.2702 21.6556C20.9008 21.2862 20.7161 20.8526 20.7161 20.3548C20.7161 19.8409 20.8968 19.4033 21.2581 19.042C21.6195 18.6807 22.0571 18.5 22.571 18.5C23.0849 18.5 23.5225 18.6807 23.8838 19.042C24.2451 19.4033 24.4258 19.8409 24.4258 20.3548ZM29.6048 17.8737C29.6048 17.1992 29.3639 16.6211 28.8822 16.1393C28.4004 15.6576 27.8142 15.4167 27.1237 15.4167C26.4492 15.4167 25.8631 15.6656 25.3652 16.1634C23.5506 14.9108 21.4067 14.2524 18.9336 14.1882L20.2344 8.33463L24.3535 9.27409C24.3696 9.78798 24.5583 10.2216 24.9196 10.5749C25.2809 10.9282 25.7105 11.1048 26.2083 11.1048C26.7222 11.1048 27.1598 10.9242 27.5212 10.5628C27.8825 10.2015 28.0632 9.76389 28.0632 9.25C28.0632 8.73611 27.8825 8.2985 27.5212 7.93717C27.1598 7.57585 26.7222 7.39518 26.2083 7.39518C25.4375 7.39518 24.8835 7.74045 24.5462 8.43099L19.9935 7.41927C19.7205 7.33898 19.5519 7.44336 19.4876 7.73242L18.0423 14.1882C15.5692 14.2845 13.4414 14.951 11.6589 16.1875C11.1771 15.6736 10.5829 15.4167 9.8763 15.4167C9.18576 15.4167 8.59961 15.6576 8.11784 16.1393C7.63607 16.6211 7.39518 17.1992 7.39518 17.8737C7.39518 18.3555 7.52365 18.7971 7.7806 19.1986C8.03754 19.6 8.37478 19.9052 8.79232 20.1139C8.71202 20.5154 8.67188 20.9008 8.67188 21.2702C8.67188 23.2294 9.63542 24.9035 11.5625 26.2926C13.4896 27.6817 15.8101 28.3763 18.5241 28.3763C21.2541 28.3763 23.5827 27.6817 25.5098 26.2926C27.4368 24.9035 28.4004 23.2294 28.4004 21.2702C28.4004 20.8687 28.3522 20.4753 28.2559 20.0898C28.6573 19.8811 28.9825 19.58 29.2314 19.1865C29.4804 18.7931 29.6048 18.3555 29.6048 17.8737ZM37 6.9375V30.0625C37 31.9735 36.3215 33.6075 34.9645 34.9645C33.6075 36.3215 31.9735 37 30.0625 37H6.9375C5.02648 37 3.39247 36.3215 2.03548 34.9645C0.678494 33.6075 0 31.9735 0 30.0625V6.9375C0 5.02648 0.678494 3.39247 2.03548 2.03548C3.39247 0.678494 5.02648 0 6.9375 0H30.0625C31.9735 0 33.6075 0.678494 34.9645 2.03548C36.3215 3.39247 37 5.02648 37 6.9375Z" fill="#FF4500"/>
</g>
<defs>
<clipPath id="clip0_17_30">
<rect width="37" height="37" fill="white"/>
</clipPath>
</defs>
</svg>
