<svg width="38" height="38" viewBox="0 0 38 38" fill="none" xmlns="http://www.w3.org/2000/svg">
<path fill-rule="evenodd" clip-rule="evenodd" d="M35.4097 28.0361C34.8935 29.3123 33.6807 29.9092 32.9903 30.1894C32.4579 30.4014 31.9101 30.5724 31.3516 30.7008L31.3152 30.8402C31.1713 31.4504 30.8268 31.9946 30.3367 32.3855C29.8243 32.7936 29.1832 33.0058 28.5285 32.984H28.5048L28.4557 32.9824C28.1079 32.9677 27.7623 32.9206 27.4233 32.8415C27.0702 32.7641 26.7098 32.7243 26.3483 32.7228C26.1424 32.7228 25.9366 32.7386 25.726 32.7703C25.3097 32.8995 24.9262 33.1172 24.6018 33.4083C23.1431 34.7405 21.266 35.5232 19.2929 35.6218L19.2375 35.625H19.1805C19.1203 35.625 19.0507 35.625 18.9778 35.6218C18.924 35.624 18.8702 35.625 18.8163 35.625H18.7625L18.7103 35.6218C16.7365 35.5242 14.8586 34.7414 13.3998 33.4083C13.0752 33.1185 12.6925 32.9015 12.2772 32.7718C12.0713 32.7402 11.8655 32.7243 11.6597 32.7243C11.305 32.7275 10.9519 32.7718 10.6036 32.851C10.2869 32.9286 9.96392 32.9777 9.63775 32.9998C8.95209 33.0584 8.26916 32.8597 7.72192 32.4425C7.20402 32.049 6.83817 31.4885 6.68642 30.856C6.67343 30.8049 6.66076 30.7537 6.64842 30.7024C6.08991 30.5747 5.54205 30.4043 5.00967 30.1926C4.31933 29.9092 3.10967 29.3123 2.59508 28.0424C2.47126 27.7382 2.3985 27.4156 2.37975 27.0877V27.0687C2.34662 26.4238 2.54108 25.7877 2.92917 25.2716C3.32342 24.7491 3.90925 24.3659 4.59483 24.2377C5.80345 23.9903 6.87751 23.3038 7.6095 22.3108L7.63483 22.2775L7.66017 22.2458C8.00375 21.8215 8.30933 21.3592 8.56742 20.8668C8.39883 20.8115 8.23246 20.7497 8.06867 20.6815C7.53016 20.4608 7.02707 20.1621 6.57558 19.7948C6.09267 19.3895 5.07775 18.3287 5.36433 16.7247L5.40075 16.5253L5.47042 16.3353C5.7228 15.6332 6.18559 15.0261 6.79567 14.5968C7.41609 14.1608 8.161 13.9375 8.91892 13.9603C8.87617 12.2708 9.06142 10.5798 9.47308 8.94108L9.51425 8.77483L9.57917 8.6165C10.3266 6.77844 11.5931 5.1978 13.224 4.06758C14.8362 2.95277 16.7534 2.36328 18.7134 2.37975L19.2581 2.375C21.2259 2.35388 23.1519 2.94297 24.7713 4.06125C26.404 5.19103 27.6727 6.77162 28.4224 8.61017L28.4873 8.7685L28.5301 8.93633C28.9393 10.5715 29.1252 12.2546 29.0827 13.9397H29.0953C29.5402 13.9397 29.9772 14.0236 30.3857 14.1788C30.9684 14.3688 31.4782 14.7139 31.8662 15.1636C32.2984 15.6639 32.5676 16.2719 32.6594 16.9068L32.6816 17.0541L32.6832 17.2029C32.7164 18.9921 31.3373 20.0893 29.9282 20.6831L29.9108 20.691C29.7507 20.7558 29.5886 20.8155 29.4247 20.8699C29.8205 21.6394 30.343 22.3171 30.9621 22.8713C31.7157 23.5442 32.5929 24.016 33.5208 24.2614C34.1604 24.4103 34.7051 24.7839 35.0756 25.2795C35.4698 25.8052 35.6535 26.4417 35.6218 27.0718V27.0813C35.6039 27.4091 35.5323 27.7316 35.4097 28.0361ZM33.2057 27.1463C33.2311 27.0837 33.2461 27.0174 33.25 26.9499C33.2548 26.8614 33.2284 26.7741 33.1756 26.7029C33.1245 26.6341 33.0493 26.5871 32.965 26.5715C32.7827 26.5243 32.6021 26.471 32.4235 26.4116L32.4172 26.4084C31.9573 26.2562 31.5113 26.065 31.084 25.8368C30.4708 25.5078 29.8989 25.1071 29.3803 24.643C28.3296 23.698 27.5067 22.5271 26.9737 21.2183L26.9658 21.1993C26.8483 20.9948 26.7748 20.7681 26.75 20.5336C26.7252 20.2992 26.7496 20.0621 26.8217 19.8376C26.9384 19.57 27.1325 19.3433 27.379 19.1868L27.4582 19.1346C27.8255 18.9018 28.2625 18.7546 28.6045 18.639L28.6678 18.6184L28.6837 18.6137L28.7011 18.6073C28.8039 18.5724 28.9058 18.5349 29.0067 18.4949L29.0478 18.4775L29.0763 18.4648H29.0795C29.2582 18.3864 29.4317 18.2965 29.5988 18.1957C30.1799 17.8394 30.3129 17.4943 30.3082 17.2457C30.2808 17.0509 30.1984 16.868 30.0707 16.7184C29.9465 16.5729 29.7807 16.469 29.5957 16.4208L29.5862 16.4176C29.3725 16.327 29.1385 16.2953 28.9085 16.3258C28.8143 16.341 28.7226 16.3692 28.6362 16.4097C28.5036 16.4806 28.3666 16.543 28.2261 16.5965L28.2102 16.6028C28.1271 16.635 28.0426 16.6635 27.9569 16.6883L27.9474 16.6899C27.7273 16.7537 27.5013 16.7951 27.2729 16.8134C26.9965 16.8205 26.7273 16.7245 26.5177 16.5443L26.562 15.7368L26.5683 15.6402C26.8429 13.5949 26.7269 11.5162 26.2263 9.51425C25.6523 8.10191 24.6797 6.88717 23.427 6.01825C22.2097 5.17713 20.7614 4.73455 19.2818 4.75158L18.7087 4.75475C17.2303 4.73891 15.7835 5.18262 14.5683 6.02458C13.3177 6.89352 12.3472 8.10773 11.7753 9.519C11.2754 11.5178 11.1588 13.5932 11.4317 15.6354C11.4507 15.9378 11.4681 16.2418 11.4839 16.5443C11.2511 16.7376 10.9531 16.8345 10.6511 16.815C10.4462 16.8055 10.2426 16.7769 10.0431 16.7295L10.032 16.7279C9.74421 16.6586 9.46684 16.5516 9.20708 16.4097C9.09793 16.3575 8.97813 16.3315 8.85717 16.3337C8.6074 16.3238 8.36137 16.3967 8.15733 16.5411C7.94758 16.6901 7.7889 16.9002 7.70292 17.1427C7.63325 17.5354 7.91983 17.8632 8.27767 18.1102L8.37267 18.1735C8.56988 18.2993 8.77816 18.4069 8.99492 18.4949C9.12692 18.5499 9.26169 18.598 9.39867 18.639C9.79789 18.7621 10.1823 18.9288 10.545 19.1362C10.5751 19.1536 10.602 19.1726 10.6305 19.1916C10.8737 19.3477 11.0649 19.5725 11.1799 19.8376C11.2502 20.063 11.2735 20.3003 11.2485 20.5351C11.2234 20.7698 11.1505 20.9969 11.0343 21.2024L11.0295 21.2183C10.639 22.1252 10.1259 22.9744 9.50475 23.7421C8.8016 24.6789 7.88975 25.439 6.84158 25.9619C6.27158 26.2437 5.66517 26.4496 5.03658 26.5715C4.95229 26.5871 4.87704 26.6341 4.826 26.7029C4.77259 26.7738 4.7457 26.8612 4.75 26.9499C4.75413 27.018 4.76965 27.0849 4.79592 27.1478C4.89262 27.3552 5.04853 27.5293 5.244 27.6482C5.56067 27.8667 6.02617 28.0662 6.63258 28.2435C6.81308 28.2958 7.00625 28.3464 7.21208 28.3955C7.57942 28.4826 7.98792 28.5633 8.43125 28.6362C8.63075 28.6678 8.71625 29.0162 8.83183 29.5814C8.87775 29.8189 8.93158 30.0533 8.99333 30.286C9.01435 30.3916 9.07283 30.4861 9.158 30.552C9.24192 30.6153 9.34642 30.6454 9.44775 30.6312C9.65358 30.6201 9.85467 30.59 10.0542 30.5409C10.5776 30.4189 11.1127 30.3541 11.6502 30.3478C12.0349 30.3478 12.4213 30.3826 12.8013 30.4523C13.6124 30.6726 14.3607 31.0798 14.9863 31.6413C16.0379 32.6082 17.3944 33.1772 18.8211 33.25C18.8686 33.25 18.9161 33.2484 18.9636 33.2437C19.0222 33.2484 19.0998 33.25 19.1805 33.25C20.6072 33.1772 21.9637 32.6082 23.0153 31.6413C23.641 31.0797 24.3892 30.672 25.2003 30.4507C25.5803 30.3826 25.9651 30.3478 26.353 30.3478C26.8904 30.3495 27.4261 30.4095 27.9506 30.5267C28.1485 30.5742 28.3512 30.6011 28.5523 30.609H28.5871C28.684 30.617 28.7804 30.5876 28.8563 30.5267C28.9354 30.463 28.9893 30.3732 29.0082 30.2733C29.0704 30.0426 29.1243 29.8097 29.1698 29.5751C29.2853 29.0114 29.3708 28.6663 29.5687 28.633C30.0532 28.5538 30.4934 28.4652 30.8861 28.3702C31.0555 28.329 31.2154 28.2847 31.3674 28.2419C31.9216 28.0788 32.3602 27.8983 32.6737 27.7004C32.7696 27.6388 32.8612 27.5706 32.9476 27.4962C33.0584 27.4013 33.1466 27.2828 33.2057 27.1494V27.1463Z" fill="black"/>
</svg>
