<svg width="36" height="36" viewBox="0 0 36 36" fill="none" xmlns="http://www.w3.org/2000/svg">
<g clip-path="url(#clip0_31_12)">
<path d="M32.625 0H3.375C1.51875 0 0 1.51875 0 3.375V32.625C0 34.4813 1.51875 36 3.375 36H32.625C34.4813 36 36 34.4813 36 32.625V3.375C36 1.51875 34.4813 0 32.625 0ZM6.1875 24.75H5.0625L4.5 21.375L5.0625 18H6.1875L6.75 21.375L6.1875 24.75ZM10.6875 24.75H9.5625L9 20.25L9.5625 15.75H10.6875L11.25 20.25L10.6875 24.75ZM15.1875 24.75H14.0625L13.5 18L14.0625 11.25H15.1875L15.75 18L15.1875 24.75ZM29.0115 24.75L18.4163 24.7432C18.3047 24.7304 18.2016 24.6778 18.1256 24.5952C18.0496 24.5126 18.0058 24.4054 18.0023 24.2932V12.1567C18.0023 11.9317 18.0788 11.8193 18.3668 11.7067C19.3426 11.3275 20.3933 11.1804 21.4358 11.2772C22.4783 11.374 23.484 11.7119 24.3733 12.2643C25.2627 12.8167 26.0114 13.5684 26.5602 14.46C27.109 15.3516 27.4429 16.3586 27.5355 17.4015C28.117 17.1589 28.7494 17.0636 29.3765 17.124C30.0037 17.1845 30.6062 17.3989 31.1307 17.7481C31.6551 18.0974 32.0852 18.5707 32.3828 19.1261C32.6803 19.6814 32.8362 20.3017 32.8365 20.9318C32.8365 23.0423 31.122 24.75 29.0115 24.75Z" fill="#FF7700"/>
</g>
<defs>
<clipPath id="clip0_31_12">
<rect width="36" height="36" fill="white"/>
</clipPath>
</defs>
</svg>
