<svg width="38" height="42" viewBox="0 0 38 42" fill="none" xmlns="http://www.w3.org/2000/svg">
<path fill-rule="evenodd" clip-rule="evenodd" d="M32.1772 7.7525C32.5685 7.57048 32.9967 7.50771 33.4174 7.57071C33.8381 7.6337 34.2358 7.82017 34.5691 8.1107C34.9025 8.40123 35.1593 8.7852 35.3128 9.22264C35.4663 9.66009 35.511 10.135 35.4421 10.598L31.851 34.6727C31.5027 36.995 29.1974 38.3267 27.2705 37.17C25.6586 36.2022 23.2646 34.7112 21.1113 33.1555C20.0346 32.3767 16.7366 29.883 17.1419 28.1085C17.4902 26.5912 23.0319 20.8897 26.1986 17.5C27.4415 16.1682 26.8746 15.4 25.4069 16.625C21.7605 19.6665 15.9101 24.2917 13.9752 25.5938C12.2684 26.7417 11.3786 26.9377 10.3146 26.7418C8.37339 26.3848 6.57314 25.8318 5.1038 25.158C3.1183 24.248 3.21489 21.231 5.10222 20.3525L32.1772 7.7525Z" fill="#0088CC"/>
</svg>
