<svg width="38" height="44" viewBox="0 0 38 44" fill="none" xmlns="http://www.w3.org/2000/svg">
<path d="M5.42857 2.75C2.43438 2.75 0 5.21641 0 8.25V35.75C0 38.7836 2.43438 41.25 5.42857 41.25H32.5714C35.5656 41.25 38 38.7836 38 35.75V8.25C38 5.21641 35.5656 2.75 32.5714 2.75H5.42857ZM24.9545 20.9945C26.6085 21.7938 27.8129 23.0141 28.4491 24.5094C29.3312 26.5977 29.4161 30.0008 26.7357 32.7078C24.683 34.7789 22.1978 35.7156 18.6692 35.7414H18.6522C14.6826 35.7156 11.629 34.3578 9.58482 31.7195C7.76116 29.3734 6.81964 26.0992 6.78571 22V21.9828C6.81964 17.8836 7.76116 14.618 9.58482 12.2633C11.6375 9.625 14.6911 8.26719 18.6522 8.24141H18.6692C22.6473 8.26719 25.7348 9.61641 27.8469 12.2461C28.8902 13.5437 29.6536 15.1078 30.1371 16.9211L27.8554 17.5398C27.4567 16.0617 26.846 14.7984 26.0402 13.793C24.3946 11.7391 21.9094 10.6906 18.6607 10.6648C15.4375 10.6906 12.9946 11.7391 11.4085 13.7758C9.92411 15.6922 9.15223 18.4508 9.12679 21.9828C9.15223 25.5148 9.92411 28.282 11.4085 30.1898C12.9946 32.2352 15.429 33.2836 18.6607 33.3008C21.5701 33.275 23.4871 32.5789 25.0902 30.9547C26.9138 29.107 26.8799 26.8383 26.2946 25.4547C25.9554 24.6469 25.3277 23.968 24.4879 23.4523C24.2844 24.9992 23.8179 26.2195 23.0884 27.1648C22.1214 28.4109 20.7388 29.0898 18.983 29.1844C17.6513 29.2617 16.3705 28.9352 15.3696 28.2648C14.1906 27.4742 13.5036 26.2711 13.4272 24.8703C13.283 22.1031 15.446 20.118 18.8134 19.9203C20.0094 19.8516 21.129 19.9031 22.1638 20.0836C22.0281 19.2328 21.7482 18.5625 21.3326 18.0727C20.7643 17.4023 19.8821 17.0586 18.7201 17.05H18.6862C17.7531 17.05 16.4808 17.3164 15.6665 18.5625L13.7156 17.2047C14.8013 15.5375 16.5656 14.618 18.6777 14.618H18.7286C22.2741 14.6438 24.3777 16.8781 24.5897 20.7883C24.7085 20.8398 24.8272 20.8914 24.946 20.9516L24.9545 20.9945ZM18.8643 26.7953C20.3062 26.718 21.9518 26.1422 22.2317 22.6016C21.4853 22.4383 20.654 22.3523 19.7719 22.3523C19.5004 22.3523 19.229 22.3609 18.9576 22.3781C16.5317 22.5156 15.7259 23.7102 15.7853 24.7758C15.8616 26.2109 17.3969 26.8813 18.8728 26.8039L18.8643 26.7953Z" fill="black"/>
</svg>
