<svg width="32" height="38" viewBox="0 0 32 38" fill="none" xmlns="http://www.w3.org/2000/svg">
<g clip-path="url(#clip0_17_22)">
<path d="M23.715 13.6827C26.0498 15.4314 28.91 16.4603 31.9991 16.4603V10.2322C31.4145 10.2323 30.8314 10.1684 30.2594 10.0414V14.9438C27.1705 14.9438 24.3106 13.9151 21.9754 12.1665V24.8763C21.9754 31.2345 17.0559 36.3884 10.9879 36.3884C8.72375 36.3884 6.61925 35.6712 4.87112 34.4412C6.86637 36.5788 9.64887 37.9047 12.7271 37.9047C18.7956 37.9047 23.7153 32.7509 23.7153 26.3924V13.6827H23.715ZM25.8612 7.39936C24.668 6.03359 23.8845 4.26855 23.715 2.31719V1.51617H22.0664C22.4814 3.99626 23.897 6.11509 25.8612 7.39936ZM8.70912 29.5623C8.04249 28.6465 7.68213 27.5261 7.68375 26.3742C7.68375 23.4663 9.93387 21.1085 12.71 21.1085C13.2273 21.1082 13.7415 21.1914 14.2346 21.3552V14.9878C13.6584 14.9051 13.0769 14.8699 12.4956 14.8829V19.8389C12.0023 19.6749 11.4878 19.5918 10.9703 19.5923C8.19425 19.5923 5.94425 21.9498 5.94425 24.8581C5.94425 26.9146 7.06887 28.695 8.70912 29.5623Z" fill="#FF004F"/>
<path d="M21.9754 12.1664C24.3107 13.9149 27.1704 14.9437 30.2594 14.9437V10.0413C28.5351 9.65643 27.0088 8.71246 25.8611 7.39936C23.8968 6.11496 22.4814 3.99613 22.0664 1.51617H17.736V26.3922C17.7261 29.2922 15.4799 31.6403 12.7097 31.6403C11.0775 31.6403 9.62725 30.8252 8.70887 29.5621C7.06887 28.695 5.94412 26.9145 5.94412 24.8583C5.94412 21.9502 8.19412 19.5924 10.9701 19.5924C11.502 19.5924 12.0146 19.6791 12.4955 19.839V14.883C6.534 15.0121 1.73962 20.1156 1.73962 26.3923C1.73962 29.5256 2.9335 32.366 4.87125 34.4415C6.61937 35.6712 8.72375 36.3886 10.988 36.3886C17.0561 36.3886 21.9755 31.2344 21.9755 24.8763V12.1665L21.9754 12.1664Z" fill="black"/>
<path d="M30.2594 10.0412V8.71589C28.7045 8.71836 27.1803 8.26214 25.8611 7.39939C27.0289 8.73884 28.5665 9.66252 30.2594 10.0414V10.0412ZM22.0662 1.51607C22.0267 1.27911 21.9963 1.04056 21.9753 0.801014V0H15.996V24.8762C15.9865 27.776 13.7403 30.1242 10.97 30.1242C10.1847 30.1254 9.41005 29.933 8.70875 29.5624C9.62712 30.8252 11.0774 31.6402 12.7096 31.6402C15.4796 31.6402 17.7261 29.2924 17.7359 26.3923V1.5162H22.0662V1.51607ZM12.4958 14.8829V13.4718C11.9961 13.4002 11.4924 13.3644 10.9881 13.3646C4.91937 13.3646 0 18.5187 0 24.8762C0 28.8622 1.93338 32.375 4.87138 34.4412C2.93363 32.3659 1.73975 29.5253 1.73975 26.3922C1.73975 20.1156 6.534 15.012 12.4958 14.8829Z" fill="#00F2EA"/>
</g>
<defs>
<clipPath id="clip0_17_22">
<rect width="32" height="38" fill="white"/>
</clipPath>
</defs>
</svg>
