<svg width="42" height="42" viewBox="0 0 42 42" fill="none" xmlns="http://www.w3.org/2000/svg">
<path d="M35.7 2.625H6.3C5.32565 2.62604 4.3915 3.01356 3.70253 3.70253C3.01356 4.3915 2.62604 5.32565 2.625 6.3V35.7C2.625 37.7265 4.2735 39.375 6.3 39.375H35.7C37.7265 39.375 39.375 37.7265 39.375 35.7V6.3C39.375 4.2735 37.7265 2.625 35.7 2.625ZM33.5514 14.8313C33.4373 17.4156 31.6326 20.9593 28.1374 25.4454C24.528 30.1376 21.4686 32.4844 18.9748 32.4844C17.4247 32.4844 16.1201 31.0577 15.0452 28.1938C12.9531 20.5406 12.0592 16.0532 10.3372 16.0532C10.1404 16.0532 9.44344 16.4719 8.25431 17.3001L7.00744 15.6923C10.0669 13.0016 12.9872 10.0157 14.8168 9.85162C16.884 9.65475 18.1558 11.0657 18.6309 14.0923C20.3293 24.8548 21.084 26.4797 24.1763 21.6064C25.284 19.8516 25.8825 18.5141 25.9652 17.5954C26.2526 14.8719 23.8403 15.0609 22.2075 15.7579C23.5121 11.4844 26.0059 9.408 29.6888 9.5235C32.4201 9.597 33.7076 11.3689 33.5514 14.8313Z" fill="#19B7EA"/>
</svg>
