<svg width="41" height="41" viewBox="0 0 41 41" fill="none" xmlns="http://www.w3.org/2000/svg">
<path d="M38.95 34.85V6.14999C38.95 3.89499 37.0988 2.04999 34.8397 2.04999H6.16024C3.80274 2.04999 2.04999 3.79864 2.04999 6.14999V34.85C2.04999 37.2034 3.80274 38.95 6.16024 38.95H34.8397C35.9276 38.9484 36.9705 38.5162 37.7407 37.748C38.5109 36.9797 38.9457 35.9378 38.95 34.85ZM31.1272 23.7943C31.1272 23.7943 33.4478 26.0842 34.0197 27.1461C34.0361 27.1686 34.0423 27.1891 34.0484 27.1973C34.2801 27.5868 34.3395 27.8943 34.2227 28.1198C34.03 28.495 33.374 28.6836 33.1505 28.7H29.0526C28.7656 28.7 28.1711 28.6262 27.4495 28.128C26.896 27.7426 26.3486 27.1051 25.8156 26.4839C25.0202 25.5614 24.3314 24.7619 23.6385 24.7619C23.5506 24.7617 23.4633 24.7763 23.3802 24.805C22.8534 24.9731 22.1851 25.7213 22.1851 27.7201C22.1851 28.3453 21.6931 28.702 21.3446 28.702H19.4668C18.8272 28.702 15.4959 28.4786 12.546 25.3646C8.92569 21.5516 5.67439 13.9031 5.64569 13.8354C5.44069 13.3414 5.86504 13.0728 6.32629 13.0728H10.4673C11.0228 13.0728 11.2012 13.409 11.3283 13.7104C11.4718 14.0527 12.013 15.4344 12.8986 16.9883C14.3397 19.516 15.2274 20.5451 15.9346 20.5451C16.0669 20.5443 16.1967 20.5098 16.3118 20.4446C17.2364 19.9342 17.0642 16.6378 17.0232 15.9572C17.0232 15.828 17.0211 14.4832 16.5496 13.8375C16.2093 13.3701 15.6333 13.1917 15.2848 13.1241C15.4269 12.9283 15.6139 12.7694 15.8301 12.6608C16.4635 12.3451 17.6054 12.3 18.7411 12.3H19.3725C20.6045 12.3164 20.9243 12.3963 21.3692 12.5091C22.2691 12.7243 22.2876 13.3086 22.2076 15.2971C22.1851 15.8629 22.1605 16.5045 22.1605 17.2569C22.1605 17.4188 22.1543 17.5972 22.1543 17.7817C22.1256 18.7985 22.0928 19.9485 22.8103 20.42C22.9032 20.4781 23.0104 20.5094 23.1199 20.5102C23.37 20.5102 24.1182 20.5102 26.1457 17.0314C27.0374 15.4959 27.7242 13.6837 27.7713 13.5484C27.843 13.4022 27.9467 13.2739 28.0747 13.1733C28.1798 13.1187 28.2967 13.0913 28.415 13.0933H33.2838C33.8168 13.0933 34.1776 13.1733 34.2452 13.3762C34.3621 13.7022 34.2227 14.6964 31.9984 17.7017L31.0083 19.0137C28.9911 21.6541 28.9911 21.7894 31.1272 23.7943Z" fill="#4C75A3"/>
</svg>
