<svg width="40" height="39" viewBox="0 0 40 39" fill="none" xmlns="http://www.w3.org/2000/svg">
<path d="M16.6797 14.9732L25.1764 19.5168L16.6797 24.0604V14.9732ZM39.9922 4.71875V34.2812C39.9922 36.5068 38.0733 38.3125 35.7081 38.3125H4.29153C1.92636 38.3125 0.00744629 36.5068 0.00744629 34.2812V4.71875C0.00744629 2.49316 1.92636 0.6875 4.29153 0.6875H35.7081C38.0733 0.6875 39.9922 2.49316 39.9922 4.71875ZM36.2436 19.5252C36.2436 19.5252 36.2436 14.5197 35.5653 12.1178C35.1905 10.7908 34.0927 9.74941 32.6914 9.39668C30.1656 8.75 19.9998 8.75 19.9998 8.75C19.9998 8.75 9.83406 8.75 7.30824 9.39668C5.90698 9.74941 4.80919 10.7908 4.43433 12.1178C3.75602 14.5113 3.75602 19.5252 3.75602 19.5252C3.75602 19.5252 3.75602 24.5307 4.43433 26.9326C4.80919 28.2596 5.90698 29.259 7.30824 29.6117C9.83406 30.25 19.9998 30.25 19.9998 30.25C19.9998 30.25 30.1656 30.25 32.6914 29.6033C34.0927 29.2506 35.1905 28.2512 35.5653 26.9242C36.2436 24.5307 36.2436 19.5252 36.2436 19.5252Z" fill="#FF0000"/>
</svg>
