<svg width="27" height="27" viewBox="0 0 27 27" fill="none" xmlns="http://www.w3.org/2000/svg">
<path fill-rule="evenodd" clip-rule="evenodd" d="M23.0963 5.09625C23.2453 4.93631 23.3265 4.72475 23.3226 4.50616C23.3188 4.28758 23.2302 4.07902 23.0756 3.92443C22.921 3.76984 22.7125 3.68129 22.4939 3.67743C22.2753 3.67357 22.0637 3.75471 21.9038 3.90375L3.9038 21.9038C3.8209 21.981 3.75441 22.0741 3.7083 22.1776C3.66218 22.2811 3.63738 22.3929 3.63539 22.5062C3.63339 22.6195 3.65423 22.732 3.69666 22.837C3.7391 22.9421 3.80226 23.0375 3.88238 23.1177C3.9625 23.1978 4.05794 23.261 4.163 23.3034C4.26807 23.3458 4.3806 23.3667 4.49389 23.3647C4.60718 23.3627 4.71891 23.3379 4.82241 23.2918C4.92591 23.2456 5.01906 23.1792 5.0963 23.0963L8.51068 19.6819C9.99343 20.3659 11.6911 20.8125 13.5001 20.8125C16.4453 20.8125 19.0935 19.6301 21.0016 18.1654C21.9578 17.4319 22.7419 16.6174 23.2909 15.8254C23.8309 15.0469 24.1876 14.2301 24.1876 13.5C24.1876 12.7699 23.8309 11.9531 23.2909 11.1758C22.7419 10.3826 21.9578 9.56813 21.0016 8.83575C20.6978 8.60175 20.3738 8.3745 20.0341 8.15963L23.0963 5.09625ZM17.0213 11.1735L15.7838 12.4088C16.0094 12.8811 16.083 13.4118 15.9945 13.9277C15.906 14.4436 15.6597 14.9194 15.2895 15.2895C14.9194 15.6596 14.4436 15.9059 13.9277 15.9944C13.4118 16.0829 12.8811 16.0093 12.4088 15.7838L11.1713 17.0213C11.9826 17.5584 12.9546 17.7986 13.9227 17.7012C14.8908 17.6038 15.7954 17.1748 16.4834 16.4868C17.1714 15.7988 17.6005 14.8941 17.6979 13.926C17.7953 12.9579 17.5551 11.9859 17.0179 11.1746L17.0213 11.1735Z" fill="#191C50"/>
<path d="M14.2537 9.34875C14.3 9.35742 14.3477 9.35479 14.3928 9.34108C14.4378 9.32737 14.4789 9.30298 14.5125 9.27L16.7063 7.07625C16.7404 7.04271 16.7651 7.00081 16.7779 6.95473C16.7907 6.90865 16.7913 6.86001 16.7794 6.81367C16.7676 6.76732 16.7438 6.7249 16.7104 6.69063C16.677 6.65636 16.6353 6.63144 16.5893 6.61837C15.5839 6.33501 14.5445 6.19005 13.5 6.1875C10.5547 6.1875 7.9065 7.36988 5.9985 8.83463C5.04225 9.56813 4.25812 10.3826 3.708 11.1746C3.168 11.9531 2.8125 12.7699 2.8125 13.5C2.8125 14.2301 3.16912 15.0469 3.708 15.8243C4.24334 16.5756 4.87584 17.2527 5.589 17.838C5.64236 17.8821 5.71033 17.9046 5.77947 17.9011C5.84861 17.8975 5.91392 17.8682 5.9625 17.8189L9.27 14.5114C9.30298 14.4778 9.32737 14.4367 9.34108 14.3916C9.35479 14.3466 9.35742 14.2989 9.34875 14.2526C9.22684 13.5817 9.26939 12.8912 9.47275 12.2403C9.67611 11.5894 10.0342 10.9975 10.5164 10.5153C10.9986 10.0331 11.5905 9.67499 12.2414 9.47162C12.8923 9.26826 13.5828 9.22571 14.2537 9.34763V9.34875Z" fill="#191C50"/>
</svg>
